<svg width="12" height="11" viewBox="0 0 12 11" fill="none" xmlns="http://www.w3.org/2000/svg">
<path d="M6.23776 0.731763C6.16293 0.501435 5.83707 0.501435 5.76224 0.731763L4.70904 3.97315C4.67558 4.07616 4.57959 4.1459 4.47128 4.1459H1.06308C0.820902 4.1459 0.720207 4.4558 0.916136 4.59815L3.67343 6.60144C3.76105 6.6651 3.79771 6.77794 3.76424 6.88095L2.71105 10.1223C2.63622 10.3527 2.89983 10.5442 3.09576 10.4018L5.85305 8.39856C5.94068 8.3349 6.05932 8.3349 6.14695 8.39856L8.90424 10.4018C9.10016 10.5442 9.36379 10.3527 9.28895 10.1223L8.23576 6.88095C8.20229 6.77794 8.23895 6.6651 8.32657 6.60144L11.0839 4.59815C11.2798 4.4558 11.1791 4.1459 10.9369 4.1459H7.52872C7.42041 4.1459 7.32442 4.07616 7.29096 3.97315L6.23776 0.731763Z" fill="#D9D9D9"/>
</svg>
